<svg xmlns="http://www.w3.org/2000/svg" width="76" height="76" viewBox="0 0 76 76"><defs><clipPath id="a"><path fill="#fff" d="M1472 486v-76h76v76zm3-38a35 35 0 1 0 70 0 35 35 0 0 0-70 0zm35.05-29.33a29.39 29.39 0 1 1 0 58.77 29.39 29.39 0 0 1 0-58.77z"/></clipPath></defs><path fill="#fff" d="M38 3a35 35 0 1 1 0 70 35 35 0 0 1 0-70zM8.67 38.05a29.39 29.39 0 1 0 58.77 0 29.39 29.39 0 0 0-58.77 0z"/><path fill="#fff" d="M38 3a35 35 0 1 1 0 70 35 35 0 0 1 0-70zM8.67 38.05a29.39 29.39 0 1 0 58.77 0 29.39 29.39 0 0 0-58.77 0z"/><path fill="#46324f" d="M38 3a35 35 0 1 1 0 70 35 35 0 0 1 0-70zM8.67 38.05a29.39 29.39 0 1 0 58.77 0 29.39 29.39 0 0 0-58.77 0z"/><path fill="none" stroke="#000" stroke-linecap="round" stroke-linejoin="round" stroke-miterlimit="50" stroke-opacity=".2" stroke-width="6" d="M1510 413a35 35 0 1 1 0 70 35 35 0 0 1 0-70zm-29.33 35.05a29.39 29.39 0 1 0 58.77 0 29.39 29.39 0 0 0-58.77 0z" clip-path="url(&quot;#a&quot;)" transform="translate(-1472 -410)"/></svg>